<svg width="512" height="512" viewBox="0 0 512 512" fill="none" xmlns="http://www.w3.org/2000/svg" xmlns:xlink="http://www.w3.org/1999/xlink" class=""><rect id="«r39»" width="512" height="512" x="0" y="0" rx="128" fill="url(#«r3a»)" stroke="#FFFFFF" stroke-width="0" stroke-opacity="100%" paint-order="stroke"></rect><clipPath id="clip"><use xlink:href="#«r39»"></use></clipPath><defs><linearGradient id="«r3a»" gradientUnits="userSpaceOnUse" gradientTransform="rotate(90)" style="transform-origin: center center;"><stop stop-color="#000000"></stop><stop offset="1" stop-color="#000000"></stop></linearGradient><radialGradient id="«r3b»" cx="0" cy="0" r="1" gradientUnits="userSpaceOnUse" gradientTransform="translate(256) rotate(90) scale(512)"><stop stop-color="white"></stop><stop offset="1" stop-color="white" stop-opacity="0"></stop></radialGradient></defs><svg xmlns="http://www.w3.org/2000/svg" fill="none" viewBox="0 0 16 16" width="320" height="320" x="96" y="96" alignment-baseline="middle" style="color: rgb(255, 255, 255);"><path fill="currentColor" d="M15.037 8.175c.15 0 .263-.113.263-.263a.238.238 0 0 0-.063-.162c-.012-.025-3.5-3.225-3.5-3.225l3.075 3.512a.236.236 0 0 0 .226.138Zm.713 1.787-.025-.024L8.125 3l6.963 7.575.025.025a.444.444 0 0 0 .312.125c.25 0 .45-.2.45-.45a.493.493 0 0 0-.125-.313Zm-3.363 4.7-11-10.187 10.138 11.063a.623.623 0 0 0 .463.212.613.613 0 0 0 .612-.613.607.607 0 0 0-.213-.475ZM.125.25l13.45 14.325.013.013a.595.595 0 0 0 .425.175.613.613 0 0 0 .612-.613.585.585 0 0 0-.113-.35C14.475 13.737.125.25.125.25Zm15.3 11.6-11-10.188 10.137 11.063a.623.623 0 0 0 .463.213.613.613 0 0 0 .612-.613.63.63 0 0 0-.212-.475Zm-5.313 3.1-.024-.025-7.6-6.938 6.962 7.575.025.026a.444.444 0 0 0 .313.125c.25 0 .45-.2.45-.45a.467.467 0 0 0-.125-.313Zm-5.85-3.487 3.076 3.512c.05.075.125.138.224.138.15 0 .263-.113.263-.263a.238.238 0 0 0-.063-.162 974.45 974.45 0 0 1-3.5-3.226Z"></path></svg></svg>